<?xml version="1.0" encoding="utf-8"?>
<!-- Generator: Adobe Illustrator 15.0.0, SVG Export Plug-In . SVG Version: 6.00 Build 0)  -->
<!DOCTYPE svg PUBLIC "-//W3C//DTD SVG 1.1//EN" "http://www.w3.org/Graphics/SVG/1.1/DTD/svg11.dtd">
<svg version="1.1" id="圖層_1" xmlns="http://www.w3.org/2000/svg" xmlns:xlink="http://www.w3.org/1999/xlink" x="0px" y="0px"
	 width="200px" height="200px" viewBox="0 0 200 200" enable-background="new 0 0 200 200" xml:space="preserve">
<path fill="#FFFFFF" d="M191.148,99.7c1.325-4.779,1.944-9.6,1.7-14.478c0-42.349-41.465-76.676-92.596-76.676
	S7.659,42.874,7.659,85.223c0,41.073,39.01,74.483,88.012,76.494v28.257c0,0,40.223-20.888,68.934-49.665
	C178.006,129.564,187.49,115.506,191.148,99.7z"/>
<g>
	<polygon fill="#00C300" points="52.189,62.246 43.538,62.246 43.538,109.053 72.263,109.053 72.263,100.692 52.189,100.692 	"/>
	<rect x="76.382" y="62.246" fill="#00C300" width="8.638" height="46.827"/>
	<polygon fill="#00C300" points="118.19,92.443 99.287,62.246 91.242,62.246 91.242,109.053 99.646,109.053 99.646,78.835 
		118.546,109.053 126.614,109.053 126.614,62.246 118.19,62.246 	"/>
	<polygon fill="#00C300" points="141.193,100.692 141.193,89.088 163.762,89.088 163.762,80.753 141.193,80.753 141.193,70.649 
		165.298,70.649 165.298,62.246 132.546,62.246 132.546,109.053 166.227,109.053 166.227,100.692 	"/>
</g>
</svg>
